# Blender v2.69 (sub 0) OBJ File: ''
# www.blender.org
o boateye
v 0.521579 5.380749 -6.815077
v 0.429795 5.337016 -6.923805
v 0.357620 5.339272 -6.838430
v 0.535003 5.336433 -6.961678
v 0.607190 5.337671 -6.935289
v 0.545312 5.224453 -7.066473
v 0.670316 5.226595 -7.020803
v 0.549669 5.074809 -7.101486
v 0.694043 5.077283 -7.048708
v 0.546982 4.927601 -7.057234
v 0.672013 4.929745 -7.011527
v 0.537943 4.822274 -6.945609
v 0.610129 4.823511 -6.919220
v 0.524973 4.787048 -6.796523
v 0.659439 4.825635 -6.860287
v 0.659449 4.829128 -6.748523
v 0.757418 4.933423 -6.909452
v 0.757437 4.939473 -6.715871
v 0.792661 5.081531 -6.930843
v 0.792682 5.088516 -6.707316
v 0.755721 5.230273 -6.918729
v 0.755740 5.236323 -6.725148
v 0.656499 5.339795 -6.876356
v 0.656510 5.343287 -6.764592
v 0.600611 5.345994 -6.667786
v -0.276530 4.938828 -6.547398
v -0.270118 4.823769 -6.750002
v -0.214563 4.827117 -6.653019
v -0.369476 4.932976 -6.717664
v -0.294261 5.088283 -6.516019
v -0.406464 5.081604 -6.709223
v -0.278227 5.235679 -6.556674
v -0.371173 5.229826 -6.726941
v -0.217503 5.341277 -6.669087
v -0.273058 5.337928 -6.766071
v -0.138409 5.376944 -6.816127
v -0.272651 5.334438 -6.877834
v -0.223134 5.332884 -6.936609
v -0.284703 5.221089 -7.022322
v -0.159538 5.220389 -7.067595
v -0.162057 5.070705 -7.102618
v 0.048089 5.074295 -7.026203
v 0.024178 4.926647 -6.992177
v 0.190742 5.080485 -6.854232
v -0.135015 4.783244 -6.797573
v -0.269712 4.820278 -6.861765
v -0.368771 4.926931 -6.911244
v -0.220195 4.818725 -6.920541
v -0.283006 4.924239 -7.013045
v -0.147915 4.818320 -6.946699
v -0.157813 4.923538 -7.058354
v -0.042842 4.820115 -6.908492
v 0.151946 4.931940 -6.846193
v 0.603550 4.831834 -6.651717
v 0.663889 4.944250 -6.545902
v 0.679794 5.093898 -6.514469
v 0.662192 5.241100 -6.555179
v 0.432735 4.822856 -6.907736
v 0.364758 4.928611 -6.991634
v 0.339255 5.075974 -7.025739
v 0.363061 5.225461 -7.000912
v -0.370468 5.223781 -6.920521
v -0.306617 5.071514 -7.050300
v 0.150249 5.228790 -6.855470
v 0.022481 5.223497 -7.001453
v -0.150854 5.332480 -6.962768
v -0.405652 5.074623 -6.932749
v 0.026092 5.337360 -6.838957
v -0.045781 5.334274 -6.924561
v 0.029031 4.823201 -6.822888
v 0.234776 5.229277 -6.855336
v 0.195992 5.080515 -6.854224
v 0.236473 4.932427 -6.846059
v 0.360559 4.825112 -6.822361
vt 0.984375 0.015625
vt 0.500000 0.140625
vt 0.984375 0.140625
vt 0.156250 0.500000
vt 0.984375 0.500000
vt 0.031250 0.984375
vt 0.984375 0.984375
vt 0.031250 1.000000
vn 0.075919 0.986225 -0.146954
vn -0.311869 0.823145 -0.474471
vn -0.446437 0.797493 -0.405831
vn -0.009217 0.823023 -0.567888
vn 0.300394 0.835170 -0.460677
vn 0.000275 0.448347 -0.893826
vn 0.500839 0.462600 -0.731529
vn 0.007050 -0.031098 -0.999481
vn 0.574969 -0.022248 -0.817866
vn 0.005676 -0.503220 -0.864132
vn 0.506394 -0.501602 -0.701346
vn 0.000366 -0.856960 -0.515336
vn 0.310068 -0.858821 -0.407727
vn 0.087231 -0.992545 -0.085116
vn 0.516098 -0.842708 -0.153142
vn 0.529984 -0.832789 0.159856
vn 0.829096 -0.480422 -0.285867
vn 0.857295 -0.455611 0.239662
vn 0.938414 -0.005402 -0.345439
vn 0.965239 0.010193 0.261147
vn 0.823664 0.471084 -0.315622
vn 0.850429 0.483840 0.206458
vn 0.506516 0.837336 -0.205634
vn 0.521226 0.846187 0.110569
vn 0.503241 0.823762 0.261084
vn -0.792539 -0.412060 0.449542
vn -0.520859 -0.838832 0.158177
vn -0.495948 -0.810337 0.312074
vn -0.852718 -0.465468 0.236946
vn -0.868564 0.004541 0.495556
vn -0.966094 -0.000916 0.258065
vn -0.789352 0.441061 0.427069
vn -0.856594 0.474013 0.203742
vn -0.513537 0.817898 0.259466
vn -0.531297 0.840144 0.108890
vn -0.086819 0.985287 -0.147214
vn -0.515458 0.831446 -0.207282
vn -0.308542 0.831660 -0.461654
vn -0.503830 0.456801 -0.733116
vn -0.002594 0.448317 -0.893857
vn -0.003510 -0.031159 -0.999481
vn 0.575793 -0.025666 -0.817164
vn 0.506760 -0.487320 -0.711081
vn 0.765038 -0.021723 -0.643618
vn -0.075509 -0.993484 -0.085375
vn -0.505875 -0.848598 -0.154759
vn -0.822596 -0.489944 -0.288491
vn -0.298868 -0.862331 -0.408704
vn -0.498367 -0.507401 -0.702963
vn 0.011139 -0.856899 -0.515305
vn 0.002838 -0.503220 -0.864132
vn 0.310190 -0.852199 -0.421308
vn 0.686595 -0.435837 -0.581922
vn 0.504262 -0.804572 0.313663
vn 0.795804 -0.402901 0.452069
vn 0.866872 0.014548 0.498318
vn 0.782852 0.450125 0.429570
vn -0.298990 -0.855708 -0.422285
vn -0.498856 -0.493118 -0.712699
vn -0.572832 -0.032319 -0.818995
vn -0.500046 0.446455 -0.742027
vn -0.828028 0.461562 -0.318247
vn -0.572069 -0.028871 -0.819666
vn 0.682864 0.417392 -0.599567
vn 0.497208 0.452223 -0.740410
vn 0.001526 0.823084 -0.567888
vn -0.937162 -0.016236 -0.348430
vn 0.438501 0.802593 -0.404428
vn 0.303842 0.826716 -0.473495
vn 0.446563 -0.825493 -0.345171
vn -0.685720 0.409500 -0.601746
vn -0.762682 -0.030531 -0.646053
vn -0.679670 -0.443710 -0.584097
vn -0.435916 -0.830582 -0.346571
s 1
f 1/1/1 2/2/2 3/2/3
f 2/2/2 1/1/1 4/2/4
f 4/2/4 1/1/1 5/3/5
f 4/2/4 5/3/5 6/4/6
f 7/5/7 6/4/6 5/3/5
f 6/4/6 7/5/7 8/6/8
f 9/7/9 8/6/8 7/5/7
f 8/6/8 9/7/9 10/4/10
f 11/5/11 10/4/10 9/7/9
f 10/4/10 11/5/11 12/2/12
f 13/3/13 12/2/12 11/5/11
f 12/2/12 13/3/13 14/1/14
f 15/2/15 14/1/14 13/3/13
f 14/1/14 15/2/15 16/2/16
f 17/4/17 16/2/16 15/2/15
f 16/2/16 17/4/17 18/4/18
f 19/6/19 18/4/18 17/4/17
f 18/4/18 19/6/19 20/6/20
f 21/4/21 20/6/20 19/6/19
f 20/6/20 21/4/21 22/4/22
f 23/2/23 22/4/22 21/4/21
f 22/4/22 23/2/23 24/2/24
f 1/1/1 24/2/24 23/2/23
f 24/2/24 1/1/1 25/2/25
f 26/4/26 27/2/27 28/2/28
f 27/2/27 26/4/26 29/4/29
f 30/6/30 29/4/29 26/4/26
f 29/4/29 30/6/30 31/6/31
f 32/4/32 31/6/31 30/6/30
f 31/6/31 32/4/32 33/4/33
f 34/2/34 33/4/33 32/4/32
f 33/4/33 34/2/34 35/2/35
f 36/1/36 35/2/35 34/2/34
f 35/2/35 36/1/36 37/2/37
f 38/3/38 37/2/37 36/1/36
f 37/2/37 38/3/38 39/5/39
f 40/4/40 39/5/39 38/3/38
f 39/5/39 40/4/40 41/6/41
f 42/6/42 41/6/41 40/4/40
f 41/6/41 42/6/42 43/4/43
f 44/8/44 43/4/43 42/6/42
f 27/2/27 45/1/45 28/2/28
f 45/1/45 27/2/27 46/2/46
f 47/4/47 46/2/46 27/2/27
f 46/2/46 47/4/47 48/3/48
f 49/5/49 48/3/48 47/4/47
f 48/3/48 49/5/49 50/2/50
f 51/4/51 50/2/50 49/5/49
f 50/2/50 51/4/51 52/2/52
f 43/4/43 52/2/52 51/4/51
f 52/2/52 43/4/43 53/4/53
f 44/8/44 53/4/53 43/4/43
f 5/3/5 1/1/1 23/2/23
f 5/3/5 23/2/23 7/5/7
f 21/4/21 7/5/7 23/2/23
f 7/5/7 21/4/21 9/7/9
f 19/6/19 9/7/9 21/4/21
f 9/7/9 19/6/19 11/5/11
f 17/4/17 11/5/11 19/6/19
f 11/5/11 17/4/17 13/3/13
f 15/2/15 13/3/13 17/4/17
f 16/2/16 54/2/54 14/1/14
f 54/2/54 16/2/16 55/4/55
f 18/4/18 55/4/55 16/2/16
f 55/4/55 18/4/18 56/6/56
f 20/6/20 56/6/56 18/4/18
f 56/6/56 20/6/20 57/4/57
f 22/4/22 57/4/57 20/6/20
f 57/4/57 22/4/22 25/2/25
f 24/2/24 25/2/25 22/4/22
f 58/2/58 12/2/12 14/1/14
f 12/2/12 58/2/58 10/4/10
f 59/4/59 10/4/10 58/2/58
f 10/4/10 59/4/59 8/6/8
f 60/6/60 8/6/8 59/4/59
f 8/6/8 60/6/60 6/4/6
f 61/4/61 6/4/6 60/6/60
f 6/4/6 61/4/61 4/2/4
f 2/2/2 4/2/4 61/4/61
f 37/2/37 33/4/33 35/2/35
f 33/4/33 37/2/37 62/4/62
f 39/5/39 62/4/62 37/2/37
f 62/4/62 39/5/39 63/7/63
f 41/6/41 63/7/63 39/5/39
f 63/7/63 41/6/41 51/4/51
f 43/4/43 51/4/51 41/6/41
f 42/6/42 64/4/64 44/8/44
f 64/4/64 42/6/42 65/4/65
f 40/4/40 65/4/65 42/6/42
f 65/4/65 40/4/40 66/2/66
f 38/3/38 66/2/66 40/4/40
f 66/2/66 38/3/38 36/1/36
f 62/4/62 31/6/31 33/4/33
f 31/6/31 62/4/62 67/6/67
f 63/7/63 67/6/67 62/4/62
f 67/6/67 63/7/63 49/5/49
f 51/4/51 49/5/49 63/7/63
f 65/4/65 68/2/68 64/4/64
f 68/2/68 65/4/65 69/2/69
f 66/2/66 69/2/69 65/4/65
f 69/2/69 66/2/66 36/1/36
f 47/4/47 67/6/67 49/5/49
f 67/6/67 47/4/47 29/4/29
f 27/2/27 29/4/29 47/4/47
f 52/2/52 45/1/45 50/2/50
f 45/1/45 52/2/52 70/2/70
f 53/4/53 70/2/70 52/2/52
f 48/3/48 45/1/45 46/2/46
f 45/1/45 48/3/48 50/2/50
f 71/4/71 61/4/61 60/6/60
f 61/4/61 71/4/71 3/2/3
f 72/8/72 60/6/60 59/4/59
f 60/6/60 72/8/72 71/4/71
f 73/4/73 59/4/59 58/2/58
f 59/4/59 73/4/73 72/8/72
f 74/2/74 58/2/58 14/1/14
f 58/2/58 74/2/74 73/4/73
f 3/2/3 2/2/2 61/4/61
f 36/1/36 68/2/68 69/2/69
f 67/6/67 29/4/29 31/6/31
