# Blender v2.69 (sub 0) OBJ File: ''
# www.blender.org
o linkmouth
v 0.054227 1.934208 0.825823
v -0.017527 1.891056 0.835165
v -0.030512 1.934837 0.824960
v 0.057983 1.890744 0.833043
v 0.135016 1.933580 0.839644
v 0.132814 1.890430 0.846867
v 0.209775 1.934208 0.873243
v 0.202629 1.890744 0.877141
v 0.280584 1.934837 0.919801
v 0.264115 1.891056 0.921026
v 0.000527 1.855637 0.846916
v 0.063683 1.855639 0.842845
v 0.130058 1.855640 0.855908
v 0.192432 1.855639 0.882095
v 0.242576 1.855637 0.920707
v 0.015695 1.832140 0.857495
v 0.120788 1.799141 0.886316
v 0.044045 1.813847 0.872095
v 0.067932 1.828859 0.856113
v 0.224085 1.832140 0.921025
v 0.181503 1.828859 0.890736
v 0.192412 1.813847 0.917327
v 0.126193 1.825576 0.868584
vt 0.738281 0.875000
vt 0.937500 0.656250
vt 0.980469 0.878906
vt 0.722656 0.656250
vt 0.492188 0.871094
vt 0.492188 0.652344
vt 0.250000 0.875000
vt 0.265625 0.656250
vt 0.007813 0.878906
vt 0.050781 0.656250
vt 0.875000 0.476563
vt 0.695313 0.476563
vt 0.492188 0.476563
vt 0.292969 0.476563
vt 0.113281 0.476563
vt 0.820313 0.359375
vt 0.492188 0.191406
vt 0.726563 0.265625
vt 0.671875 0.339844
vt 0.167969 0.359375
vt 0.316406 0.339844
vt 0.261719 0.265625
vt 0.492188 0.324219
vn 0.068879 -0.168860 -0.983230
vn -0.012215 -0.253320 -0.967305
vn 0.008259 -0.224675 -0.974399
vn 0.063784 -0.215735 -0.974334
vn 0.291732 -0.168441 -0.941552
vn 0.289163 -0.213202 -0.933226
vn 0.477071 -0.159725 -0.864228
vn 0.476516 -0.213141 -0.852901
vn 0.557869 -0.209275 -0.803111
vn 0.567204 -0.265908 -0.779469
vn -0.043160 -0.359312 -0.932219
vn 0.058626 -0.347606 -0.935789
vn 0.278451 -0.331400 -0.901456
vn 0.464248 -0.348674 -0.814142
vn 0.565145 -0.376748 -0.733943
vn -0.044230 -0.501746 -0.863883
vn 0.225298 -0.621434 -0.750373
vn 0.037212 -0.587503 -0.808366
vn 0.023377 -0.590869 -0.806421
vn 0.529406 -0.502398 -0.683612
vn 0.426130 -0.561815 -0.709037
vn 0.435681 -0.695496 -0.571373
vn 0.255013 -0.492355 -0.832179
s 1
f 1/1/1 2/2/2 3/3/3
f 2/2/2 1/1/1 4/4/4
f 4/4/4 1/1/1 5/5/5
f 4/4/4 5/5/5 6/6/6
f 7/7/7 6/6/6 5/5/5
f 6/6/6 7/7/7 8/8/8
f 9/9/9 8/8/8 7/7/7
f 8/8/8 9/9/9 10/10/10
f 4/4/4 11/11/11 2/2/2
f 11/11/11 4/4/4 12/12/12
f 6/6/6 12/12/12 4/4/4
f 12/12/12 6/6/6 13/13/13
f 8/8/8 13/13/13 6/6/6
f 13/13/13 8/8/8 14/14/14
f 10/10/10 14/14/14 8/8/8
f 14/14/14 10/10/10 15/15/15
f 16/16/16 17/17/17 18/18/18
f 17/17/17 16/16/16 19/19/19
f 11/11/11 19/19/19 16/16/16
f 19/19/19 11/11/11 12/12/12
f 20/20/20 14/14/14 15/15/15
f 14/14/14 20/20/20 21/21/21
f 22/22/22 21/21/21 20/20/20
f 21/21/21 22/22/22 17/17/17
f 21/21/21 13/13/13 14/14/14
f 13/13/13 21/21/21 23/23/23
f 17/17/17 23/23/23 21/21/21
f 23/23/23 17/17/17 19/19/19
f 23/23/23 12/12/12 13/13/13
f 12/12/12 23/23/23 19/19/19
