# Blender v2.69 (sub 0) OBJ File: ''
# www.blender.org
o righteye
v 0.130494 2.041157 0.828348
v 0.051698 2.112312 0.819243
v 0.126082 2.115195 0.833748
v 0.059419 2.038407 0.814311
v 0.131666 1.967472 0.832045
v 0.063254 1.965407 0.817164
v -0.077061 2.037708 0.832178
v -0.009009 1.962825 0.813189
v -0.066308 1.958929 0.834176
v -0.015508 2.035139 0.811182
v -0.079373 2.106333 0.834880
v -0.026537 2.108910 0.815643
vt 0.988281 0.542969
vt 0.664063 0.785156
vt 0.988281 0.785156
vt 0.679688 0.542969
vt 0.988281 0.300781
vt 0.691406 0.300781
vt 0.152344 0.562500
vt 0.390625 0.304688
vt 0.191406 0.300781
vt 0.371094 0.542969
vt 0.156250 0.785156
vt 0.343750 0.785156
vn 0.192405 0.019054 -0.981130
vn 0.113550 0.077381 -0.990514
vn 0.187662 0.082573 -0.978757
vn 0.120945 0.020295 -0.992431
vn 0.204321 -0.036460 -0.978225
vn 0.133042 -0.028494 -0.990701
vn -0.326297 -0.014276 -0.945159
vn -0.137103 -0.043613 -0.989596
vn -0.338879 -0.070048 -0.938219
vn -0.140233 -0.000702 -0.990112
vn -0.332979 0.015136 -0.942813
vn -0.167155 0.035608 -0.985287
s 1
f 1/1/1 2/2/2 3/3/3
f 2/2/2 1/1/1 4/4/4
f 4/4/4 1/1/1 5/5/5
f 4/4/4 5/5/5 6/6/6
f 7/7/7 8/8/8 9/9/9
f 8/8/8 7/7/7 10/10/10
f 11/11/11 10/10/10 7/7/7
f 10/10/10 11/11/11 12/12/12
f 10/10/10 6/6/6 8/8/8
f 6/6/6 10/10/10 4/4/4
f 12/12/12 4/4/4 10/10/10
f 4/4/4 12/12/12 2/2/2
